<?xml version="1.0" standalone="no"?>
<!DOCTYPE svg PUBLIC "-//W3C//DTD SVG 20010904//EN"
 "http://www.w3.org/TR/2001/REC-SVG-20010904/DTD/svg10.dtd">
<svg version="1.0" xmlns="http://www.w3.org/2000/svg"
 width="419.000000pt" height="368.000000pt" viewBox="0 0 419.000000 368.000000"
 preserveAspectRatio="xMidYMid meet">

<g transform="translate(0.000000,368.000000) scale(0.100000,-0.100000)"
fill="#000000" stroke="none">
<path d="M474 3218 c-4 -7 -3 -8 4 -4 7 4 12 2 12 -3 0 -6 3 -10 8 -10 21 4
23 -4 8 -28 l-17 -28 20 23 c11 13 22 18 26 12 3 -5 11 -10 18 -10 11 0 -52
59 -65 60 -4 0 -10 -5 -14 -12z"/>
<path d="M441 3184 c0 -11 3 -14 6 -6 3 7 2 16 -1 19 -3 4 -6 -2 -5 -13z"/>
<path d="M3655 3070 c-146 -52 -599 -201 -670 -221 -49 -14 -87 -18 -125 -15
-37 4 -49 3 -35 -3 40 -19 124 -11 221 20 53 17 98 29 100 26 3 -2 -31 -19
-76 -37 -44 -18 -80 -36 -80 -40 0 -4 -28 -21 -62 -39 -50 -25 -87 -34 -183
-46 -66 -8 -125 -15 -132 -15 -7 0 -11 -12 -10 -27 2 -24 -2 -28 -27 -31 -26
-3 -28 -1 -24 22 3 17 1 23 -6 19 -39 -23 -146 -111 -173 -142 -32 -36 -34
-39 -37 -63 0 -7 -8 -13 -16 -13 -8 -1 -14 -6 -13 -12 1 -6 -5 -10 -15 -9 -9
0 -16 -3 -15 -9 1 -5 -16 -11 -38 -12 -38 -2 -93 -29 -87 -42 2 -4 24 -26 50
-49 46 -43 47 -43 89 -32 46 13 174 74 183 88 2 4 -7 9 -22 10 -20 1 -23 -1
-12 -8 12 -7 11 -9 -6 -8 -26 2 -27 23 -2 25 23 2 50 22 43 32 -9 15 30 7 43
-8 12 -14 13 -14 8 1 -3 11 0 15 7 12 7 -2 53 37 102 87 110 112 135 128 255
167 52 17 103 33 112 37 9 4 -21 -31 -66 -77 -76 -77 -85 -91 -134 -204 -34
-80 -55 -146 -62 -195 -6 -41 -18 -105 -26 -144 -50 -225 -67 -276 -59 -171 3
38 8 72 11 77 3 5 7 25 9 45 3 33 1 36 -21 31 -19 -3 -22 -2 -13 9 6 8 14 12
18 10 3 -2 7 8 8 22 1 20 -1 23 -8 10 -5 -8 -42 -48 -83 -88 l-75 -72 33 -51
c71 -114 111 -263 105 -396 -2 -45 -4 -81 -3 -81 6 0 64 98 90 150 80 163 101
239 129 465 41 330 70 433 157 551 72 97 140 141 623 408 66 36 116 66 110 65
-5 0 -46 -14 -90 -29z m-1250 -700 c3 -5 1 -10 -4 -10 -6 0 -11 5 -11 10 0 6
2 10 4 10 3 0 8 -4 11 -10z"/>
<path d="M521 2903 c-1 -6 4 -24 11 -40 6 -15 11 -31 10 -35 -1 -5 1 -8 6 -8
4 0 13 -13 20 -28 6 -16 20 -37 30 -48 9 -10 35 -41 56 -68 27 -33 57 -56 94
-73 90 -39 418 -146 697 -227 439 -127 575 -181 730 -291 178 -127 280 -321
292 -555 7 -127 -6 -207 -48 -297 -35 -74 -36 -82 -8 -57 39 35 105 128 127
180 38 91 45 171 23 277 -60 298 -313 595 -712 835 -160 96 -390 214 -406 208
-8 -3 -12 -2 -9 2 5 8 -143 86 -149 80 -7 -6 44 -45 51 -39 4 3 1 -4 -5 -16
-6 -13 -16 -23 -21 -23 -21 0 -25 -2 -33 -16 -5 -8 -14 -11 -20 -7 -7 3 -4 -3
6 -14 9 -11 14 -23 11 -26 -4 -4 -13 1 -21 11 -13 15 -13 15 -3 -5 13 -29 20
-84 9 -77 -5 3 -9 -1 -9 -8 0 -9 -3 -9 -10 2 -5 8 -18 16 -30 16 -14 1 -17 -2
-11 -10 6 -7 6 -18 1 -26 -10 -16 -3 -33 11 -25 5 4 9 1 9 -5 0 -6 4 -9 9 -6
5 3 15 -2 22 -12 13 -16 13 -16 -5 -2 -18 14 -19 13 -13 -5 7 -20 7 -20 -8 -1
-8 11 -15 14 -15 8 0 -7 -5 -12 -11 -12 -5 0 -8 4 -5 9 3 5 -2 15 -12 22 -15
13 -16 12 -3 -3 11 -15 11 -18 -1 -18 -14 0 -112 31 -148 47 -8 3 -18 6 -22 5
-4 -1 -5 4 -2 12 3 9 -5 15 -25 18 -16 2 -28 1 -25 -4 3 -4 0 -8 -5 -8 -6 0
-11 8 -11 18 0 12 -3 14 -8 4 -7 -10 -22 -7 -70 11 -35 13 -59 27 -55 32 5 4
2 5 -5 1 -19 -11 -52 3 -52 22 0 15 -2 15 -10 2 -6 -10 -10 -11 -10 -2 0 6 -6
11 -12 10 -7 -2 -13 7 -13 19 0 13 -7 28 -14 35 -11 10 -12 10 -7 1 5 -8 1
-13 -9 -13 -10 0 -13 5 -9 12 4 6 3 8 -2 5 -11 -6 -57 57 -57 78 0 8 -4 12 -9
9 -7 -5 -12 10 -9 29 1 5 -3 6 -8 2 -13 -7 -30 25 -23 44 2 8 0 11 -6 7 -6 -3
-15 6 -20 21 -6 16 -11 23 -11 16z m794 -243 c-3 -5 -13 -10 -22 -10 -9 0 -13
-3 -9 -7 4 -5 13 -8 19 -8 18 0 14 -26 -5 -39 -21 -13 -35 -1 -20 17 9 10 9
16 0 25 -9 9 -5 14 13 21 31 13 31 13 24 1z m-89 -137 c-5 -11 -2 -13 9 -9 9
3 13 2 10 -3 -3 -6 -14 -9 -24 -8 -15 1 -17 5 -11 18 5 9 6 20 2 24 -4 5 -1 5
6 1 7 -5 11 -15 8 -23z"/>
<path d="M1290 2615 c-11 -13 -10 -14 4 -9 9 3 16 10 16 15 0 13 -6 11 -20 -6z"/>
<path d="M1040 2876 c0 -2 7 -7 16 -10 8 -3 12 -2 9 4 -6 10 -25 14 -25 6z"/>
<path d="M1296 2722 c-7 -12 12 -38 21 -28 4 5 2 11 -5 13 -6 3 -10 9 -6 14 3
5 3 9 0 9 -3 0 -7 -4 -10 -8z"/>
<path d="M1260 2716 c0 -2 8 -10 18 -17 15 -13 16 -12 3 4 -13 16 -21 21 -21
13z"/>
<path d="M1237 2563 c3 -7 6 -13 8 -13 2 0 5 6 8 13 3 8 -1 14 -8 14 -7 0 -11
-6 -8 -14z"/>
<path d="M1027 2539 c7 -7 15 -10 18 -7 3 3 -2 9 -12 12 -14 6 -15 5 -6 -5z"/>
<path d="M1169 2523 c-13 -16 -12 -17 4 -4 9 7 17 15 17 17 0 8 -8 3 -21 -13z"/>
<path d="M2479 2423 c-13 -16 -12 -17 4 -4 9 7 17 15 17 17 0 8 -8 3 -21 -13z"/>
<path d="M1094 2252 c3 -6 -5 -19 -19 -30 -14 -11 -25 -24 -25 -30 0 -5 -10
-12 -22 -15 -22 -6 -22 -6 -2 -29 11 -13 12 -18 3 -10 -22 17 -33 2 -11 -16
12 -10 8 -9 -10 2 -34 20 -38 20 -33 -2 2 -12 -3 -18 -17 -19 -20 -2 -20 -1
-2 13 18 14 18 15 -6 9 l-25 -6 25 21 25 21 -25 -12 c-14 -7 -29 -12 -33 -11
-5 1 -6 -1 -3 -6 2 -4 1 -14 -5 -22 -6 -10 -9 -11 -9 -2 0 16 -19 15 -54 -3
-15 -8 -33 -12 -40 -9 -6 3 0 -4 14 -15 45 -37 203 -110 294 -136 49 -14 143
-30 210 -37 104 -9 146 -8 298 8 98 10 176 19 175 20 -1 2 -44 12 -95 23 -182
40 -333 107 -492 220 -110 78 -126 88 -116 73z m-39 -92 c-3 -5 -12 -7 -20 -3
-21 7 -19 13 6 13 11 0 18 -4 14 -10z m-172 -65 c-3 -9 -8 -14 -10 -11 -3 3
-2 9 2 15 9 16 15 13 8 -4z"/>
<path d="M984 2165 c3 -21 16 -31 16 -12 0 9 -4 18 -9 21 -5 4 -8 -1 -7 -9z"/>
<path d="M1890 2119 c0 -5 -5 -7 -12 -3 -7 5 -9 2 -6 -8 5 -12 -1 -13 -38 -8
-45 7 -65 -2 -42 -17 7 -4 15 -8 18 -8 31 -4 80 -29 76 -40 -2 -7 4 -21 14
-30 11 -10 17 -22 14 -26 -3 -5 1 -6 9 -4 7 3 26 -1 41 -8 21 -11 23 -16 11
-20 -8 -4 -23 -4 -32 0 -10 3 -15 3 -11 -2 4 -4 47 -14 95 -22 104 -16 202
-59 256 -111 81 -79 21 38 -65 126 -77 78 -271 191 -305 177 -8 -2 -11 0 -8 5
3 6 1 10 -4 10 -6 0 -11 -5 -11 -11z m32 -104 c2 3 5 -2 5 -10 0 -19 0 -19
-23 7 -12 14 -13 18 -3 10 9 -6 18 -10 21 -7z"/>
<path d="M1794 1849 c-45 -5 -99 -13 -120 -19 l-39 -9 37 2 c20 2 35 0 33 -4
-10 -15 33 -38 74 -41 29 -2 46 -8 48 -18 4 -13 3 -13 -6 0 -8 12 -10 11 -8
-7 0 -12 4 -20 8 -17 4 2 10 0 14 -6 4 -6 11 -7 17 -4 6 4 8 2 4 -4 -3 -5 -3
-12 1 -15 5 -2 3 -3 -3 -1 -6 1 -17 -2 -25 -8 -11 -8 -11 -9 3 -4 10 3 20 1
23 -5 4 -5 10 -7 15 -4 5 3 12 -4 15 -16 5 -14 1 -25 -12 -34 -10 -8 32 6 92
30 106 43 225 68 225 48 0 -5 -15 -15 -34 -21 -69 -25 -281 -175 -362 -257
-109 -111 -233 -303 -247 -385 -2 -14 -2 -19 0 -12 5 15 13 15 33 1 13 -9 13
-10 -1 -6 -13 4 -15 1 -12 -14 4 -14 9 -17 18 -9 9 8 17 7 28 -4 8 -8 17 -13
20 -10 3 4 4 -11 3 -32 -2 -22 -2 -33 1 -26 3 6 12 12 21 12 15 0 15 -2 2 -10
-13 -8 -12 -10 4 -10 19 0 19 0 0 -22 -19 -23 -19 -23 2 -5 11 9 24 17 28 17
20 0 334 225 376 269 3 4 20 20 39 36 27 24 31 26 23 9 -24 -46 -200 -198
-452 -391 -80 -61 -167 -131 -193 -155 l-48 -43 1 -75 c1 -41 1 -83 1 -92 0
-22 15 -32 25 -17 5 8 3 9 -6 4 -9 -5 -11 -4 -6 4 12 18 28 1 23 -25 -3 -19
-2 -22 9 -13 8 6 11 16 7 23 -3 6 -3 8 1 4 5 -4 56 37 115 90 59 53 165 140
236 191 359 262 474 384 540 573 30 88 16 265 -33 389 -20 50 -157 118 -291
143 -90 17 -141 18 -267 5z m-326 -1354 c-3 -3 -9 2 -12 12 -6 14 -5 15 5 6 7
-7 10 -15 7 -18z"/>
<path d="M1594 994 c2 -10 9 -18 16 -16 8 2 10 -3 6 -15 -6 -15 -5 -16 6 -5
10 10 8 16 -9 34 -20 20 -21 20 -19 2z"/>
</g>
</svg>
